<mxfile host="app.diagrams.net" agent="Mozilla/5.0 (Windows NT 10.0; Win64; x64) AppleWebKit/537.36 (KHTML, like Gecko) Chrome/118.0.0.0 Safari/537.36" version="26.2.6">
  <diagram name="第 1 页" id="L3s64_KllT6bYbB96RDP">
    <mxGraphModel dx="2696" dy="1026" grid="1" gridSize="10" guides="1" tooltips="1" connect="1" arrows="1" fold="1" page="1" pageScale="1" pageWidth="827" pageHeight="1169" math="1" shadow="0">
      <root>
        <mxCell id="0" />
        <mxCell id="1" parent="0" />
        <mxCell id="XJnZgypbOoGni2FUrBq0-6" style="edgeStyle=orthogonalEdgeStyle;rounded=0;orthogonalLoop=1;jettySize=auto;html=1;" edge="1" parent="1" source="XJnZgypbOoGni2FUrBq0-2" target="XJnZgypbOoGni2FUrBq0-3">
          <mxGeometry relative="1" as="geometry" />
        </mxCell>
        <mxCell id="XJnZgypbOoGni2FUrBq0-2" value="&lt;font style=&quot;font-size: 14px;&quot;&gt;开始&lt;/font&gt;" style="rounded=0;whiteSpace=wrap;html=1;" vertex="1" parent="1">
          <mxGeometry x="120" y="140" width="120" height="60" as="geometry" />
        </mxCell>
        <mxCell id="XJnZgypbOoGni2FUrBq0-5" style="edgeStyle=orthogonalEdgeStyle;rounded=0;orthogonalLoop=1;jettySize=auto;html=1;" edge="1" parent="1" source="XJnZgypbOoGni2FUrBq0-3" target="XJnZgypbOoGni2FUrBq0-4">
          <mxGeometry relative="1" as="geometry" />
        </mxCell>
        <mxCell id="XJnZgypbOoGni2FUrBq0-13" style="edgeStyle=orthogonalEdgeStyle;rounded=0;orthogonalLoop=1;jettySize=auto;html=1;" edge="1" parent="1" source="XJnZgypbOoGni2FUrBq0-3" target="XJnZgypbOoGni2FUrBq0-7">
          <mxGeometry relative="1" as="geometry" />
        </mxCell>
        <mxCell id="XJnZgypbOoGni2FUrBq0-3" value="&lt;font style=&quot;font-size: 14px;&quot;&gt;中心盘点库存&lt;/font&gt;" style="rounded=0;whiteSpace=wrap;html=1;" vertex="1" parent="1">
          <mxGeometry x="120" y="240" width="120" height="40" as="geometry" />
        </mxCell>
        <mxCell id="XJnZgypbOoGni2FUrBq0-31" style="edgeStyle=orthogonalEdgeStyle;rounded=0;orthogonalLoop=1;jettySize=auto;html=1;" edge="1" parent="1" source="XJnZgypbOoGni2FUrBq0-4" target="XJnZgypbOoGni2FUrBq0-28">
          <mxGeometry relative="1" as="geometry" />
        </mxCell>
        <mxCell id="XJnZgypbOoGni2FUrBq0-37" value="&lt;font style=&quot;font-size: 17px;&quot;&gt;Y&lt;/font&gt;" style="edgeLabel;html=1;align=center;verticalAlign=middle;resizable=0;points=[];" vertex="1" connectable="0" parent="XJnZgypbOoGni2FUrBq0-31">
          <mxGeometry x="-0.2907" y="-2" relative="1" as="geometry">
            <mxPoint x="12" as="offset" />
          </mxGeometry>
        </mxCell>
        <mxCell id="XJnZgypbOoGni2FUrBq0-34" style="edgeStyle=orthogonalEdgeStyle;rounded=0;orthogonalLoop=1;jettySize=auto;html=1;entryX=0;entryY=0.5;entryDx=0;entryDy=0;" edge="1" parent="1" source="XJnZgypbOoGni2FUrBq0-4" target="XJnZgypbOoGni2FUrBq0-30">
          <mxGeometry relative="1" as="geometry">
            <Array as="points">
              <mxPoint x="80" y="370" />
              <mxPoint x="80" y="670" />
            </Array>
          </mxGeometry>
        </mxCell>
        <mxCell id="XJnZgypbOoGni2FUrBq0-35" value="&lt;font style=&quot;font-size: 17px;&quot;&gt;N&lt;/font&gt;" style="edgeLabel;html=1;align=center;verticalAlign=middle;resizable=0;points=[];" vertex="1" connectable="0" parent="XJnZgypbOoGni2FUrBq0-34">
          <mxGeometry x="-0.0429" y="6" relative="1" as="geometry">
            <mxPoint x="4" y="-163" as="offset" />
          </mxGeometry>
        </mxCell>
        <mxCell id="XJnZgypbOoGni2FUrBq0-4" value="是否到货" style="rhombus;whiteSpace=wrap;html=1;" vertex="1" parent="1">
          <mxGeometry x="100" y="330" width="160" height="80" as="geometry" />
        </mxCell>
        <mxCell id="XJnZgypbOoGni2FUrBq0-21" style="edgeStyle=orthogonalEdgeStyle;rounded=0;orthogonalLoop=1;jettySize=auto;html=1;entryX=0.5;entryY=0;entryDx=0;entryDy=0;" edge="1" parent="1" source="XJnZgypbOoGni2FUrBq0-7" target="XJnZgypbOoGni2FUrBq0-12">
          <mxGeometry relative="1" as="geometry">
            <Array as="points">
              <mxPoint x="-150" y="370" />
              <mxPoint x="-150" y="700" />
              <mxPoint x="-10" y="700" />
            </Array>
          </mxGeometry>
        </mxCell>
        <mxCell id="XJnZgypbOoGni2FUrBq0-7" value="&lt;font style=&quot;font-size: 14px;&quot;&gt;累计持有成本&lt;/font&gt;" style="rounded=0;whiteSpace=wrap;html=1;" vertex="1" parent="1">
          <mxGeometry x="-70" y="350" width="120" height="40" as="geometry" />
        </mxCell>
        <mxCell id="XJnZgypbOoGni2FUrBq0-15" style="edgeStyle=orthogonalEdgeStyle;rounded=0;orthogonalLoop=1;jettySize=auto;html=1;" edge="1" parent="1" source="XJnZgypbOoGni2FUrBq0-8" target="XJnZgypbOoGni2FUrBq0-9">
          <mxGeometry relative="1" as="geometry" />
        </mxCell>
        <mxCell id="XJnZgypbOoGni2FUrBq0-23" style="edgeStyle=orthogonalEdgeStyle;rounded=0;orthogonalLoop=1;jettySize=auto;html=1;entryX=0.5;entryY=1;entryDx=0;entryDy=0;" edge="1" parent="1" source="XJnZgypbOoGni2FUrBq0-8" target="XJnZgypbOoGni2FUrBq0-7">
          <mxGeometry relative="1" as="geometry" />
        </mxCell>
        <mxCell id="XJnZgypbOoGni2FUrBq0-8" value="&lt;font style=&quot;font-size: 14px;&quot;&gt;总部盘点&lt;/font&gt;" style="rounded=0;whiteSpace=wrap;html=1;" vertex="1" parent="1">
          <mxGeometry x="-70" y="450" width="120" height="40" as="geometry" />
        </mxCell>
        <mxCell id="XJnZgypbOoGni2FUrBq0-16" style="edgeStyle=orthogonalEdgeStyle;rounded=0;orthogonalLoop=1;jettySize=auto;html=1;entryX=0.5;entryY=0;entryDx=0;entryDy=0;" edge="1" parent="1" source="XJnZgypbOoGni2FUrBq0-9" target="XJnZgypbOoGni2FUrBq0-12">
          <mxGeometry relative="1" as="geometry" />
        </mxCell>
        <mxCell id="XJnZgypbOoGni2FUrBq0-9" value="&lt;font style=&quot;font-size: 14px;&quot;&gt;累计缺货成本&lt;/font&gt;" style="rounded=0;whiteSpace=wrap;html=1;" vertex="1" parent="1">
          <mxGeometry x="-70" y="545" width="120" height="40" as="geometry" />
        </mxCell>
        <mxCell id="XJnZgypbOoGni2FUrBq0-20" style="edgeStyle=orthogonalEdgeStyle;rounded=0;orthogonalLoop=1;jettySize=auto;html=1;entryX=0;entryY=0.25;entryDx=0;entryDy=0;" edge="1" parent="1" source="XJnZgypbOoGni2FUrBq0-11" target="XJnZgypbOoGni2FUrBq0-3">
          <mxGeometry relative="1" as="geometry">
            <Array as="points">
              <mxPoint x="-240" y="1019" />
              <mxPoint x="-240" y="250" />
            </Array>
          </mxGeometry>
        </mxCell>
        <mxCell id="XJnZgypbOoGni2FUrBq0-24" value="&lt;font style=&quot;font-size: 19px;&quot;&gt;N&lt;/font&gt;" style="edgeLabel;html=1;align=center;verticalAlign=middle;resizable=0;points=[];" vertex="1" connectable="0" parent="XJnZgypbOoGni2FUrBq0-20">
          <mxGeometry x="-0.8534" y="1" relative="1" as="geometry">
            <mxPoint x="6" y="-21" as="offset" />
          </mxGeometry>
        </mxCell>
        <mxCell id="XJnZgypbOoGni2FUrBq0-26" style="edgeStyle=orthogonalEdgeStyle;rounded=0;orthogonalLoop=1;jettySize=auto;html=1;entryX=0;entryY=0.5;entryDx=0;entryDy=0;" edge="1" parent="1" source="XJnZgypbOoGni2FUrBq0-11" target="XJnZgypbOoGni2FUrBq0-25">
          <mxGeometry relative="1" as="geometry" />
        </mxCell>
        <mxCell id="XJnZgypbOoGni2FUrBq0-27" value="&lt;font style=&quot;font-size: 20px;&quot;&gt;Y&lt;/font&gt;" style="edgeLabel;html=1;align=center;verticalAlign=middle;resizable=0;points=[];" vertex="1" connectable="0" parent="XJnZgypbOoGni2FUrBq0-26">
          <mxGeometry x="-0.32" y="3" relative="1" as="geometry">
            <mxPoint x="2" y="-17" as="offset" />
          </mxGeometry>
        </mxCell>
        <mxCell id="XJnZgypbOoGni2FUrBq0-11" value="是否搜索至&amp;nbsp;&lt;span style=&quot;-webkit-font-smoothing: antialiased; box-sizing: border-box; -webkit-tap-highlight-color: rgba(0, 0, 0, 0); border-color: currentcolor; overflow-anchor: auto; color: rgba(0, 0, 0, 0.85); font-family: KaTeX_Main, &amp;quot;Times New Roman&amp;quot;, serif; font-size: 19.36px; text-align: left; text-wrap: nowrap; background-color: rgb(255, 255, 255);&quot; class=&quot;mord&quot;&gt;&lt;span style=&quot;-webkit-font-smoothing: antialiased; box-sizing: border-box; -webkit-tap-highlight-color: rgba(0, 0, 0, 0); border-color: currentcolor; font-family: KaTeX_Math; font-style: italic; overflow-anchor: auto; margin-right: 0.05764em;&quot; class=&quot;mord mathnormal&quot;&gt;S&lt;/span&gt;&lt;span style=&quot;-webkit-font-smoothing: antialiased; box-sizing: border-box; -webkit-tap-highlight-color: rgba(0, 0, 0, 0); border-color: currentcolor; overflow-anchor: auto;&quot; class=&quot;msupsub&quot;&gt;&lt;span style=&quot;-webkit-font-smoothing: antialiased; box-sizing: border-box; -webkit-tap-highlight-color: rgba(0, 0, 0, 0); border-color: currentcolor; border-collapse: collapse; display: inline-table; table-layout: fixed; margin-right: -2px; overflow-anchor: auto;&quot; class=&quot;vlist-t vlist-t2&quot;&gt;&lt;span style=&quot;-webkit-font-smoothing: antialiased; box-sizing: border-box; -webkit-tap-highlight-color: rgba(0, 0, 0, 0); border-color: currentcolor; display: table-row; overflow-anchor: auto;&quot; class=&quot;vlist-r&quot;&gt;&lt;span style=&quot;-webkit-font-smoothing: antialiased; box-sizing: border-box; -webkit-tap-highlight-color: rgba(0, 0, 0, 0); border-color: currentcolor; display: table-cell; position: relative; vertical-align: bottom; overflow-anchor: auto; height: 0.8247em;&quot; class=&quot;vlist&quot;&gt;&lt;span style=&quot;-webkit-font-smoothing: antialiased; box-sizing: border-box; -webkit-tap-highlight-color: rgba(0, 0, 0, 0); border-color: currentcolor; display: block; height: 0px; position: relative; overflow-anchor: auto; top: -2.453em; margin-left: -0.0576em; margin-right: 0.05em;&quot;&gt;&lt;span style=&quot;-webkit-font-smoothing: antialiased; box-sizing: border-box; -webkit-tap-highlight-color: rgba(0, 0, 0, 0); border-color: currentcolor; display: inline-block; overflow-anchor: auto; overflow: hidden; width: 0px; height: 2.7em;&quot; class=&quot;pstrut&quot;&gt;&lt;/span&gt;&lt;span style=&quot;-webkit-font-smoothing: antialiased; box-sizing: border-box; -webkit-tap-highlight-color: rgba(0, 0, 0, 0); border-color: currentcolor; display: inline-block; overflow-anchor: auto; font-size: 0.7em;&quot; class=&quot;sizing reset-size6 size3 mtight&quot;&gt;&lt;span style=&quot;-webkit-font-smoothing: antialiased; box-sizing: border-box; -webkit-tap-highlight-color: rgba(0, 0, 0, 0); border-color: currentcolor; font-family: KaTeX_Math; font-style: italic; overflow-anchor: auto; margin-right: 0.03588em;&quot; class=&quot;mord mathnormal mtight&quot;&gt;j&lt;/span&gt;&lt;/span&gt;&lt;/span&gt;&lt;span style=&quot;-webkit-font-smoothing: antialiased; box-sizing: border-box; -webkit-tap-highlight-color: rgba(0, 0, 0, 0); border-color: currentcolor; display: block; height: 0px; position: relative; overflow-anchor: auto; top: -3.063em; margin-right: 0.05em;&quot;&gt;&lt;span style=&quot;-webkit-font-smoothing: antialiased; box-sizing: border-box; -webkit-tap-highlight-color: rgba(0, 0, 0, 0); border-color: currentcolor; display: inline-block; overflow-anchor: auto; overflow: hidden; width: 0px; height: 2.7em;&quot; class=&quot;pstrut&quot;&gt;&lt;/span&gt;&lt;span style=&quot;-webkit-font-smoothing: antialiased; box-sizing: border-box; -webkit-tap-highlight-color: rgba(0, 0, 0, 0); border-color: currentcolor; display: inline-block; overflow-anchor: auto; font-size: 0.7em;&quot; class=&quot;sizing reset-size6 size3 mtight&quot;&gt;&lt;span style=&quot;-webkit-font-smoothing: antialiased; box-sizing: border-box; -webkit-tap-highlight-color: rgba(0, 0, 0, 0); border-color: currentcolor; font-family: KaTeX_Math; font-style: italic; overflow-anchor: auto;&quot; class=&quot;mord mathnormal mtight&quot;&gt;i&lt;/span&gt;&lt;/span&gt;&lt;/span&gt;&lt;/span&gt;&lt;span style=&quot;-webkit-font-smoothing: antialiased; box-sizing: border-box; -webkit-tap-highlight-color: rgba(0, 0, 0, 0); border-color: currentcolor; display: table-cell; font-size: 1px; min-width: 2px; vertical-align: bottom; width: 2px; overflow-anchor: auto;&quot; class=&quot;vlist-s&quot;&gt;&lt;br&gt;&lt;/span&gt;&lt;/span&gt;&lt;span style=&quot;-webkit-font-smoothing: antialiased; box-sizing: border-box; -webkit-tap-highlight-color: rgba(0, 0, 0, 0); border-color: currentcolor; display: table-row; overflow-anchor: auto;&quot; class=&quot;vlist-r&quot;&gt;&lt;span style=&quot;-webkit-font-smoothing: antialiased; box-sizing: border-box; -webkit-tap-highlight-color: rgba(0, 0, 0, 0); border-color: currentcolor; display: table-cell; position: relative; vertical-align: bottom; overflow-anchor: auto; height: 0.3831em;&quot; class=&quot;vlist&quot;&gt;&lt;span style=&quot;-webkit-font-smoothing: antialiased; box-sizing: border-box; -webkit-tap-highlight-color: rgba(0, 0, 0, 0); border-color: currentcolor; display: block; height: 0px; position: relative; overflow-anchor: auto;&quot;&gt;&lt;/span&gt;&lt;/span&gt;&lt;/span&gt;&lt;/span&gt;&lt;/span&gt;&lt;/span&gt;&lt;span style=&quot;-webkit-font-smoothing: antialiased; box-sizing: border-box; -webkit-tap-highlight-color: rgba(0, 0, 0, 0); border-color: currentcolor; display: inline-block; overflow-anchor: auto; color: rgba(0, 0, 0, 0.85); font-family: KaTeX_Main, &amp;quot;Times New Roman&amp;quot;, serif; font-size: 19.36px; text-align: left; text-wrap: nowrap; background-color: rgb(255, 255, 255); margin-right: 0.2778em;&quot; class=&quot;mspace&quot;&gt;&lt;/span&gt;" style="rhombus;whiteSpace=wrap;html=1;" vertex="1" parent="1">
          <mxGeometry x="-90" y="979" width="160" height="80" as="geometry" />
        </mxCell>
        <mxCell id="XJnZgypbOoGni2FUrBq0-17" style="edgeStyle=orthogonalEdgeStyle;rounded=0;orthogonalLoop=1;jettySize=auto;html=1;" edge="1" parent="1" source="XJnZgypbOoGni2FUrBq0-12" target="XJnZgypbOoGni2FUrBq0-11">
          <mxGeometry relative="1" as="geometry" />
        </mxCell>
        <mxCell id="XJnZgypbOoGni2FUrBq0-12" value="&lt;font style=&quot;font-size: 14px;&quot;&gt;累计系统总成本并记录当前最优解&lt;/font&gt;" style="rounded=0;whiteSpace=wrap;html=1;" vertex="1" parent="1">
          <mxGeometry x="-70" y="890" width="120" height="40" as="geometry" />
        </mxCell>
        <mxCell id="XJnZgypbOoGni2FUrBq0-25" value="&lt;font style=&quot;font-size: 14px;&quot;&gt;结束，记当前解为系统最优解&lt;/font&gt;" style="rounded=0;whiteSpace=wrap;html=1;" vertex="1" parent="1">
          <mxGeometry x="120" y="999" width="120" height="40" as="geometry" />
        </mxCell>
        <mxCell id="XJnZgypbOoGni2FUrBq0-32" style="edgeStyle=orthogonalEdgeStyle;rounded=0;orthogonalLoop=1;jettySize=auto;html=1;" edge="1" parent="1" source="XJnZgypbOoGni2FUrBq0-28" target="XJnZgypbOoGni2FUrBq0-29">
          <mxGeometry relative="1" as="geometry" />
        </mxCell>
        <mxCell id="XJnZgypbOoGni2FUrBq0-28" value="&lt;font style=&quot;font-size: 14px;&quot;&gt;累计订货成本&lt;/font&gt;" style="rounded=0;whiteSpace=wrap;html=1;" vertex="1" parent="1">
          <mxGeometry x="120" y="450" width="120" height="40" as="geometry" />
        </mxCell>
        <mxCell id="XJnZgypbOoGni2FUrBq0-33" style="edgeStyle=orthogonalEdgeStyle;rounded=0;orthogonalLoop=1;jettySize=auto;html=1;" edge="1" parent="1" source="XJnZgypbOoGni2FUrBq0-29" target="XJnZgypbOoGni2FUrBq0-30">
          <mxGeometry relative="1" as="geometry" />
        </mxCell>
        <mxCell id="XJnZgypbOoGni2FUrBq0-29" value="&lt;div style=&quot;text-align: start;&quot;&gt;&lt;font face=&quot;KaTeX_Math&quot;&gt;&lt;span style=&quot;font-size: 14.52px; text-wrap: nowrap; background-color: rgb(255, 255, 255);&quot;&gt;更新库存为&lt;/span&gt;&lt;/font&gt;&lt;/div&gt;&lt;i&gt;&lt;span style=&quot;font-family: KaTeX_Main, &amp;quot;Times New Roman&amp;quot;, serif; font-size: 1.21em; color: var(--md-box-samantha-normal-text-color); background-color: rgb(255, 255, 255); text-align: start; text-wrap: nowrap; -webkit-font-smoothing: antialiased; box-sizing: border-box; -webkit-tap-highlight-color: rgba(0, 0, 0, 0); border-color: currentcolor; position: relative; width: min-content; display: inline-block; overflow-anchor: auto;&quot; class=&quot;base&quot;&gt;&lt;span style=&quot;-webkit-font-smoothing: antialiased; box-sizing: border-box; -webkit-tap-highlight-color: rgba(0, 0, 0, 0); border-color: currentcolor; overflow-anchor: auto;&quot; class=&quot;mord&quot;&gt;&lt;span style=&quot;-webkit-font-smoothing: antialiased; box-sizing: border-box; -webkit-tap-highlight-color: rgba(0, 0, 0, 0); border-color: currentcolor; font-family: KaTeX_Math; overflow-anchor: auto; margin-right: 0.05764em;&quot; class=&quot;mord mathnormal&quot;&gt;S&lt;/span&gt;&lt;span style=&quot;-webkit-font-smoothing: antialiased; box-sizing: border-box; -webkit-tap-highlight-color: rgba(0, 0, 0, 0); border-color: currentcolor; overflow-anchor: auto;&quot; class=&quot;msupsub&quot;&gt;&lt;span style=&quot;-webkit-font-smoothing: antialiased; box-sizing: border-box; -webkit-tap-highlight-color: rgba(0, 0, 0, 0); border-color: currentcolor; border-collapse: collapse; display: inline-table; table-layout: fixed; margin-right: -2px; overflow-anchor: auto;&quot; class=&quot;vlist-t vlist-t2&quot;&gt;&lt;span style=&quot;-webkit-font-smoothing: antialiased; box-sizing: border-box; -webkit-tap-highlight-color: rgba(0, 0, 0, 0); border-color: currentcolor; display: table-row; overflow-anchor: auto;&quot; class=&quot;vlist-r&quot;&gt;&lt;span style=&quot;-webkit-font-smoothing: antialiased; box-sizing: border-box; -webkit-tap-highlight-color: rgba(0, 0, 0, 0); border-color: currentcolor; display: table-cell; position: relative; vertical-align: bottom; overflow-anchor: auto; height: 0.7519em;&quot; class=&quot;vlist&quot;&gt;&lt;span style=&quot;-webkit-font-smoothing: antialiased; box-sizing: border-box; -webkit-tap-highlight-color: rgba(0, 0, 0, 0); border-color: currentcolor; display: block; height: 0px; position: relative; overflow-anchor: auto; top: -2.453em; margin-left: -0.0576em; margin-right: 0.05em;&quot;&gt;&lt;span style=&quot;-webkit-font-smoothing: antialiased; box-sizing: border-box; -webkit-tap-highlight-color: rgba(0, 0, 0, 0); border-color: currentcolor; display: inline-block; overflow-anchor: auto; overflow: hidden; width: 0px; height: 2.7em;&quot; class=&quot;pstrut&quot;&gt;&lt;/span&gt;&lt;span style=&quot;-webkit-font-smoothing: antialiased; box-sizing: border-box; -webkit-tap-highlight-color: rgba(0, 0, 0, 0); border-color: currentcolor; display: inline-block; overflow-anchor: auto; font-size: 0.7em;&quot; class=&quot;sizing reset-size6 size3 mtight&quot;&gt;&lt;span style=&quot;-webkit-font-smoothing: antialiased; box-sizing: border-box; -webkit-tap-highlight-color: rgba(0, 0, 0, 0); border-color: currentcolor; font-family: KaTeX_Math; overflow-anchor: auto;&quot; class=&quot;mord mathnormal mtight&quot;&gt;p&lt;/span&gt;&lt;/span&gt;&lt;/span&gt;&lt;span style=&quot;-webkit-font-smoothing: antialiased; box-sizing: border-box; -webkit-tap-highlight-color: rgba(0, 0, 0, 0); border-color: currentcolor; display: block; height: 0px; position: relative; overflow-anchor: auto; top: -3.063em; margin-right: 0.05em;&quot;&gt;&lt;span style=&quot;-webkit-font-smoothing: antialiased; box-sizing: border-box; -webkit-tap-highlight-color: rgba(0, 0, 0, 0); border-color: currentcolor; display: inline-block; overflow-anchor: auto; overflow: hidden; width: 0px; height: 2.7em;&quot; class=&quot;pstrut&quot;&gt;&lt;/span&gt;&lt;span style=&quot;-webkit-font-smoothing: antialiased; box-sizing: border-box; -webkit-tap-highlight-color: rgba(0, 0, 0, 0); border-color: currentcolor; display: inline-block; overflow-anchor: auto; font-size: 0.7em;&quot; class=&quot;sizing reset-size6 size3 mtight&quot;&gt;&lt;span style=&quot;-webkit-font-smoothing: antialiased; box-sizing: border-box; -webkit-tap-highlight-color: rgba(0, 0, 0, 0); border-color: currentcolor; overflow-anchor: auto;&quot; class=&quot;mord mtight&quot;&gt;&lt;span style=&quot;-webkit-font-smoothing: antialiased; box-sizing: border-box; -webkit-tap-highlight-color: rgba(0, 0, 0, 0); border-color: currentcolor; overflow-anchor: auto;&quot; class=&quot;mord mtight&quot;&gt;′&lt;/span&gt;&lt;/span&gt;&lt;/span&gt;&lt;/span&gt;&lt;/span&gt;&lt;span style=&quot;-webkit-font-smoothing: antialiased; box-sizing: border-box; -webkit-tap-highlight-color: rgba(0, 0, 0, 0); border-color: currentcolor; display: table-cell; font-size: 1px; min-width: 2px; vertical-align: bottom; width: 2px; overflow-anchor: auto;&quot; class=&quot;vlist-s&quot;&gt;​&lt;/span&gt;&lt;/span&gt;&lt;span style=&quot;-webkit-font-smoothing: antialiased; box-sizing: border-box; -webkit-tap-highlight-color: rgba(0, 0, 0, 0); border-color: currentcolor; display: table-row; overflow-anchor: auto;&quot; class=&quot;vlist-r&quot;&gt;&lt;span style=&quot;-webkit-font-smoothing: antialiased; box-sizing: border-box; -webkit-tap-highlight-color: rgba(0, 0, 0, 0); border-color: currentcolor; display: table-cell; position: relative; vertical-align: bottom; overflow-anchor: auto; height: 0.3831em;&quot; class=&quot;vlist&quot;&gt;&lt;span style=&quot;-webkit-font-smoothing: antialiased; box-sizing: border-box; -webkit-tap-highlight-color: rgba(0, 0, 0, 0); border-color: currentcolor; display: block; height: 0px; position: relative; overflow-anchor: auto;&quot;&gt;&lt;/span&gt;&lt;/span&gt;&lt;/span&gt;&lt;/span&gt;&lt;/span&gt;&lt;/span&gt;&lt;span style=&quot;-webkit-font-smoothing: antialiased; box-sizing: border-box; -webkit-tap-highlight-color: rgba(0, 0, 0, 0); border-color: currentcolor; display: inline-block; overflow-anchor: auto; margin-right: 0.2778em;&quot; class=&quot;mspace&quot;&gt;&lt;/span&gt;&lt;span style=&quot;-webkit-font-smoothing: antialiased; box-sizing: border-box; -webkit-tap-highlight-color: rgba(0, 0, 0, 0); border-color: currentcolor; overflow-anchor: auto;&quot; class=&quot;mrel&quot;&gt;=&lt;/span&gt;&lt;span style=&quot;-webkit-font-smoothing: antialiased; box-sizing: border-box; -webkit-tap-highlight-color: rgba(0, 0, 0, 0); border-color: currentcolor; display: inline-block; overflow-anchor: auto; margin-right: 0.2778em;&quot; class=&quot;mspace&quot;&gt;&lt;/span&gt;&lt;/span&gt;&lt;span style=&quot;font-family: KaTeX_Main, &amp;quot;Times New Roman&amp;quot;, serif; font-size: 1.21em; color: var(--md-box-samantha-normal-text-color); background-color: rgb(255, 255, 255); text-align: start; text-wrap: nowrap; -webkit-font-smoothing: antialiased; box-sizing: border-box; -webkit-tap-highlight-color: rgba(0, 0, 0, 0); border-color: currentcolor; position: relative; width: min-content; display: inline-block; overflow-anchor: auto;&quot; class=&quot;base&quot;&gt;&lt;span style=&quot;-webkit-font-smoothing: antialiased; box-sizing: border-box; -webkit-tap-highlight-color: rgba(0, 0, 0, 0); border-color: currentcolor; display: inline-block; overflow-anchor: auto; height: 1.135em; vertical-align: -0.3831em;&quot; class=&quot;strut&quot;&gt;&lt;/span&gt;&lt;span style=&quot;-webkit-font-smoothing: antialiased; box-sizing: border-box; -webkit-tap-highlight-color: rgba(0, 0, 0, 0); border-color: currentcolor; overflow-anchor: auto;&quot; class=&quot;mord&quot;&gt;&lt;span style=&quot;-webkit-font-smoothing: antialiased; box-sizing: border-box; -webkit-tap-highlight-color: rgba(0, 0, 0, 0); border-color: currentcolor; font-family: KaTeX_Math; overflow-anchor: auto; margin-right: 0.05764em;&quot; class=&quot;mord mathnormal&quot;&gt;S&lt;/span&gt;&lt;span style=&quot;-webkit-font-smoothing: antialiased; box-sizing: border-box; -webkit-tap-highlight-color: rgba(0, 0, 0, 0); border-color: currentcolor; overflow-anchor: auto;&quot; class=&quot;msupsub&quot;&gt;&lt;span style=&quot;-webkit-font-smoothing: antialiased; box-sizing: border-box; -webkit-tap-highlight-color: rgba(0, 0, 0, 0); border-color: currentcolor; border-collapse: collapse; display: inline-table; table-layout: fixed; margin-right: -2px; overflow-anchor: auto;&quot; class=&quot;vlist-t vlist-t2&quot;&gt;&lt;span style=&quot;-webkit-font-smoothing: antialiased; box-sizing: border-box; -webkit-tap-highlight-color: rgba(0, 0, 0, 0); border-color: currentcolor; display: table-row; overflow-anchor: auto;&quot; class=&quot;vlist-r&quot;&gt;&lt;span style=&quot;-webkit-font-smoothing: antialiased; box-sizing: border-box; -webkit-tap-highlight-color: rgba(0, 0, 0, 0); border-color: currentcolor; display: table-cell; position: relative; vertical-align: bottom; overflow-anchor: auto; height: 0.7519em;&quot; class=&quot;vlist&quot;&gt;&lt;span style=&quot;-webkit-font-smoothing: antialiased; box-sizing: border-box; -webkit-tap-highlight-color: rgba(0, 0, 0, 0); border-color: currentcolor; display: block; height: 0px; position: relative; overflow-anchor: auto; top: -2.453em; margin-left: -0.0576em; margin-right: 0.05em;&quot;&gt;&lt;span style=&quot;-webkit-font-smoothing: antialiased; box-sizing: border-box; -webkit-tap-highlight-color: rgba(0, 0, 0, 0); border-color: currentcolor; display: inline-block; overflow-anchor: auto; overflow: hidden; width: 0px; height: 2.7em;&quot; class=&quot;pstrut&quot;&gt;&lt;/span&gt;&lt;span style=&quot;-webkit-font-smoothing: antialiased; box-sizing: border-box; -webkit-tap-highlight-color: rgba(0, 0, 0, 0); border-color: currentcolor; display: inline-block; overflow-anchor: auto; font-size: 0.7em;&quot; class=&quot;sizing reset-size6 size3 mtight&quot;&gt;&lt;span style=&quot;-webkit-font-smoothing: antialiased; box-sizing: border-box; -webkit-tap-highlight-color: rgba(0, 0, 0, 0); border-color: currentcolor; font-family: KaTeX_Math; overflow-anchor: auto;&quot; class=&quot;mord mathnormal mtight&quot;&gt;p&lt;/span&gt;&lt;/span&gt;&lt;/span&gt;&lt;span style=&quot;-webkit-font-smoothing: antialiased; box-sizing: border-box; -webkit-tap-highlight-color: rgba(0, 0, 0, 0); border-color: currentcolor; display: block; height: 0px; position: relative; overflow-anchor: auto; top: -3.063em; margin-right: 0.05em;&quot;&gt;&lt;span style=&quot;-webkit-font-smoothing: antialiased; box-sizing: border-box; -webkit-tap-highlight-color: rgba(0, 0, 0, 0); border-color: currentcolor; display: inline-block; overflow-anchor: auto; overflow: hidden; width: 0px; height: 2.7em;&quot; class=&quot;pstrut&quot;&gt;&lt;/span&gt;&lt;span style=&quot;-webkit-font-smoothing: antialiased; box-sizing: border-box; -webkit-tap-highlight-color: rgba(0, 0, 0, 0); border-color: currentcolor; display: inline-block; overflow-anchor: auto; font-size: 0.7em;&quot; class=&quot;sizing reset-size6 size3 mtight&quot;&gt;&lt;span style=&quot;-webkit-font-smoothing: antialiased; box-sizing: border-box; -webkit-tap-highlight-color: rgba(0, 0, 0, 0); border-color: currentcolor; overflow-anchor: auto;&quot; class=&quot;mord mtight&quot;&gt;&lt;span style=&quot;-webkit-font-smoothing: antialiased; box-sizing: border-box; -webkit-tap-highlight-color: rgba(0, 0, 0, 0); border-color: currentcolor; overflow-anchor: auto;&quot; class=&quot;mord mtight&quot;&gt;′&lt;/span&gt;&lt;/span&gt;&lt;/span&gt;&lt;/span&gt;&lt;/span&gt;&lt;span style=&quot;-webkit-font-smoothing: antialiased; box-sizing: border-box; -webkit-tap-highlight-color: rgba(0, 0, 0, 0); border-color: currentcolor; display: table-cell; font-size: 1px; min-width: 2px; vertical-align: bottom; width: 2px; overflow-anchor: auto;&quot; class=&quot;vlist-s&quot;&gt;​&lt;/span&gt;&lt;/span&gt;&lt;span style=&quot;-webkit-font-smoothing: antialiased; box-sizing: border-box; -webkit-tap-highlight-color: rgba(0, 0, 0, 0); border-color: currentcolor; display: table-row; overflow-anchor: auto;&quot; class=&quot;vlist-r&quot;&gt;&lt;span style=&quot;-webkit-font-smoothing: antialiased; box-sizing: border-box; -webkit-tap-highlight-color: rgba(0, 0, 0, 0); border-color: currentcolor; display: table-cell; position: relative; vertical-align: bottom; overflow-anchor: auto; height: 0.3831em;&quot; class=&quot;vlist&quot;&gt;&lt;span style=&quot;-webkit-font-smoothing: antialiased; box-sizing: border-box; -webkit-tap-highlight-color: rgba(0, 0, 0, 0); border-color: currentcolor; display: block; height: 0px; position: relative; overflow-anchor: auto;&quot;&gt;&lt;/span&gt;&lt;/span&gt;&lt;/span&gt;&lt;/span&gt;&lt;/span&gt;&lt;/span&gt;&lt;span style=&quot;-webkit-font-smoothing: antialiased; box-sizing: border-box; -webkit-tap-highlight-color: rgba(0, 0, 0, 0); border-color: currentcolor; display: inline-block; overflow-anchor: auto; margin-right: 0.2222em;&quot; class=&quot;mspace&quot;&gt;&lt;/span&gt;&lt;span style=&quot;-webkit-font-smoothing: antialiased; box-sizing: border-box; -webkit-tap-highlight-color: rgba(0, 0, 0, 0); border-color: currentcolor; overflow-anchor: auto;&quot; class=&quot;mbin&quot;&gt;+&lt;/span&gt;&lt;span style=&quot;-webkit-font-smoothing: antialiased; box-sizing: border-box; -webkit-tap-highlight-color: rgba(0, 0, 0, 0); border-color: currentcolor; display: inline-block; overflow-anchor: auto; margin-right: 0.2222em;&quot; class=&quot;mspace&quot;&gt;&lt;/span&gt;&lt;/span&gt;&lt;span style=&quot;font-family: KaTeX_Main, &amp;quot;Times New Roman&amp;quot;, serif; font-size: 1.21em; color: var(--md-box-samantha-normal-text-color); background-color: rgb(255, 255, 255); text-align: start; text-wrap: nowrap; -webkit-font-smoothing: antialiased; box-sizing: border-box; -webkit-tap-highlight-color: rgba(0, 0, 0, 0); border-color: currentcolor; position: relative; width: min-content; display: inline-block; overflow-anchor: auto;&quot; class=&quot;base&quot;&gt;&lt;span style=&quot;-webkit-font-smoothing: antialiased; box-sizing: border-box; -webkit-tap-highlight-color: rgba(0, 0, 0, 0); border-color: currentcolor; display: inline-block; overflow-anchor: auto; height: 0.6444em;&quot; class=&quot;strut&quot;&gt;&lt;/span&gt;&lt;span style=&quot;-webkit-font-smoothing: antialiased; box-sizing: border-box; -webkit-tap-highlight-color: rgba(0, 0, 0, 0); border-color: currentcolor; overflow-anchor: auto;&quot; class=&quot;mord&quot;&gt;1&lt;/span&gt;&lt;/span&gt;&lt;/i&gt;" style="rounded=0;whiteSpace=wrap;html=1;" vertex="1" parent="1">
          <mxGeometry x="120" y="537.5" width="120" height="55" as="geometry" />
        </mxCell>
        <mxCell id="XJnZgypbOoGni2FUrBq0-41" style="edgeStyle=orthogonalEdgeStyle;rounded=0;orthogonalLoop=1;jettySize=auto;html=1;entryX=0.5;entryY=0;entryDx=0;entryDy=0;" edge="1" parent="1" source="XJnZgypbOoGni2FUrBq0-30" target="XJnZgypbOoGni2FUrBq0-38">
          <mxGeometry relative="1" as="geometry" />
        </mxCell>
        <mxCell id="XJnZgypbOoGni2FUrBq0-45" value="&lt;font style=&quot;font-size: 16px;&quot;&gt;N&lt;/font&gt;" style="edgeLabel;html=1;align=center;verticalAlign=middle;resizable=0;points=[];" vertex="1" connectable="0" parent="XJnZgypbOoGni2FUrBq0-41">
          <mxGeometry x="-0.5511" relative="1" as="geometry">
            <mxPoint x="20" as="offset" />
          </mxGeometry>
        </mxCell>
        <mxCell id="XJnZgypbOoGni2FUrBq0-50" style="edgeStyle=orthogonalEdgeStyle;rounded=0;orthogonalLoop=1;jettySize=auto;html=1;" edge="1" parent="1" source="XJnZgypbOoGni2FUrBq0-30" target="XJnZgypbOoGni2FUrBq0-46">
          <mxGeometry relative="1" as="geometry" />
        </mxCell>
        <mxCell id="XJnZgypbOoGni2FUrBq0-53" value="&lt;font style=&quot;font-size: 18px;&quot;&gt;Y&lt;/font&gt;" style="edgeLabel;html=1;align=center;verticalAlign=middle;resizable=0;points=[];" vertex="1" connectable="0" parent="XJnZgypbOoGni2FUrBq0-50">
          <mxGeometry x="-0.2881" relative="1" as="geometry">
            <mxPoint y="-20" as="offset" />
          </mxGeometry>
        </mxCell>
        <mxCell id="XJnZgypbOoGni2FUrBq0-30" value="是否附近机库&lt;br&gt;申请转运" style="rhombus;whiteSpace=wrap;html=1;" vertex="1" parent="1">
          <mxGeometry x="100" y="630" width="160" height="80" as="geometry" />
        </mxCell>
        <mxCell id="XJnZgypbOoGni2FUrBq0-42" style="edgeStyle=orthogonalEdgeStyle;rounded=0;orthogonalLoop=1;jettySize=auto;html=1;" edge="1" parent="1" source="XJnZgypbOoGni2FUrBq0-38" target="XJnZgypbOoGni2FUrBq0-39">
          <mxGeometry relative="1" as="geometry" />
        </mxCell>
        <mxCell id="XJnZgypbOoGni2FUrBq0-38" value="&lt;span style=&quot;font-size: 14px;&quot;&gt;向上级仓库&lt;br&gt;申请补货&lt;/span&gt;" style="rounded=0;whiteSpace=wrap;html=1;" vertex="1" parent="1">
          <mxGeometry x="120" y="740" width="120" height="40" as="geometry" />
        </mxCell>
        <mxCell id="XJnZgypbOoGni2FUrBq0-43" style="edgeStyle=orthogonalEdgeStyle;rounded=0;orthogonalLoop=1;jettySize=auto;html=1;" edge="1" parent="1" source="XJnZgypbOoGni2FUrBq0-39" target="XJnZgypbOoGni2FUrBq0-40">
          <mxGeometry relative="1" as="geometry" />
        </mxCell>
        <mxCell id="XJnZgypbOoGni2FUrBq0-39" value="&lt;span style=&quot;font-size: 14px;&quot;&gt;累计持有成本&lt;/span&gt;" style="rounded=0;whiteSpace=wrap;html=1;" vertex="1" parent="1">
          <mxGeometry x="120" y="809" width="120" height="40" as="geometry" />
        </mxCell>
        <mxCell id="XJnZgypbOoGni2FUrBq0-44" style="edgeStyle=orthogonalEdgeStyle;rounded=0;orthogonalLoop=1;jettySize=auto;html=1;" edge="1" parent="1" source="XJnZgypbOoGni2FUrBq0-40" target="XJnZgypbOoGni2FUrBq0-12">
          <mxGeometry relative="1" as="geometry" />
        </mxCell>
        <mxCell id="XJnZgypbOoGni2FUrBq0-40" value="&lt;font style=&quot;font-size: 14px;&quot;&gt;累计运输成本&lt;/font&gt;" style="rounded=0;whiteSpace=wrap;html=1;" vertex="1" parent="1">
          <mxGeometry x="120" y="890" width="120" height="40" as="geometry" />
        </mxCell>
        <mxCell id="XJnZgypbOoGni2FUrBq0-49" style="edgeStyle=orthogonalEdgeStyle;rounded=0;orthogonalLoop=1;jettySize=auto;html=1;" edge="1" parent="1" source="XJnZgypbOoGni2FUrBq0-46" target="XJnZgypbOoGni2FUrBq0-48">
          <mxGeometry relative="1" as="geometry" />
        </mxCell>
        <mxCell id="XJnZgypbOoGni2FUrBq0-46" value="&lt;span style=&quot;font-size: 14px;&quot;&gt;以转运成本最低位为原则，转运点q&lt;/span&gt;" style="rounded=0;whiteSpace=wrap;html=1;" vertex="1" parent="1">
          <mxGeometry x="353" y="720" width="120" height="40" as="geometry" />
        </mxCell>
        <mxCell id="XJnZgypbOoGni2FUrBq0-51" style="edgeStyle=orthogonalEdgeStyle;rounded=0;orthogonalLoop=1;jettySize=auto;html=1;entryX=1;entryY=0.5;entryDx=0;entryDy=0;" edge="1" parent="1" source="XJnZgypbOoGni2FUrBq0-48" target="XJnZgypbOoGni2FUrBq0-39">
          <mxGeometry relative="1" as="geometry" />
        </mxCell>
        <mxCell id="XJnZgypbOoGni2FUrBq0-52" style="edgeStyle=orthogonalEdgeStyle;rounded=0;orthogonalLoop=1;jettySize=auto;html=1;entryX=1;entryY=0.5;entryDx=0;entryDy=0;" edge="1" parent="1" source="XJnZgypbOoGni2FUrBq0-48" target="XJnZgypbOoGni2FUrBq0-40">
          <mxGeometry relative="1" as="geometry">
            <Array as="points">
              <mxPoint x="413" y="910" />
            </Array>
          </mxGeometry>
        </mxCell>
        <mxCell id="XJnZgypbOoGni2FUrBq0-48" value="&lt;span style=&quot;font-size: 14px;&quot;&gt;发出转运指令，更新库存&lt;/span&gt;&lt;span style=&quot;font-family: KaTeX_Main, &amp;quot;Times New Roman&amp;quot;, serif; font-size: 1.21em; color: var(--md-box-samantha-normal-text-color); background-color: rgb(255, 255, 255); text-align: start; text-wrap: nowrap; -webkit-font-smoothing: antialiased; box-sizing: border-box; -webkit-tap-highlight-color: rgba(0, 0, 0, 0); border-color: currentcolor; position: relative; width: min-content; display: inline-block; overflow-anchor: auto;&quot; class=&quot;base&quot;&gt;&lt;span style=&quot;-webkit-font-smoothing: antialiased; box-sizing: border-box; -webkit-tap-highlight-color: rgba(0, 0, 0, 0); border-color: currentcolor; overflow-anchor: auto;&quot; class=&quot;mord&quot;&gt;&lt;span style=&quot;-webkit-font-smoothing: antialiased; box-sizing: border-box; -webkit-tap-highlight-color: rgba(0, 0, 0, 0); border-color: currentcolor; font-family: KaTeX_Math; font-style: italic; overflow-anchor: auto; margin-right: 0.05764em;&quot; class=&quot;mord mathnormal&quot;&gt;S&lt;/span&gt;&lt;span style=&quot;-webkit-font-smoothing: antialiased; box-sizing: border-box; -webkit-tap-highlight-color: rgba(0, 0, 0, 0); border-color: currentcolor; overflow-anchor: auto;&quot; class=&quot;msupsub&quot;&gt;&lt;span style=&quot;-webkit-font-smoothing: antialiased; box-sizing: border-box; -webkit-tap-highlight-color: rgba(0, 0, 0, 0); border-color: currentcolor; border-collapse: collapse; display: inline-table; table-layout: fixed; margin-right: -2px; overflow-anchor: auto;&quot; class=&quot;vlist-t vlist-t2&quot;&gt;&lt;span style=&quot;-webkit-font-smoothing: antialiased; box-sizing: border-box; -webkit-tap-highlight-color: rgba(0, 0, 0, 0); border-color: currentcolor; display: table-row; overflow-anchor: auto;&quot; class=&quot;vlist-r&quot;&gt;&lt;span style=&quot;-webkit-font-smoothing: antialiased; box-sizing: border-box; -webkit-tap-highlight-color: rgba(0, 0, 0, 0); border-color: currentcolor; display: table-cell; position: relative; vertical-align: bottom; overflow-anchor: auto; height: 0.8247em;&quot; class=&quot;vlist&quot;&gt;&lt;span style=&quot;-webkit-font-smoothing: antialiased; box-sizing: border-box; -webkit-tap-highlight-color: rgba(0, 0, 0, 0); border-color: currentcolor; display: block; height: 0px; position: relative; overflow-anchor: auto; top: -2.453em; margin-left: -0.0576em; margin-right: 0.05em;&quot;&gt;&lt;span style=&quot;-webkit-font-smoothing: antialiased; box-sizing: border-box; -webkit-tap-highlight-color: rgba(0, 0, 0, 0); border-color: currentcolor; display: inline-block; overflow-anchor: auto; overflow: hidden; width: 0px; height: 2.7em;&quot; class=&quot;pstrut&quot;&gt;&lt;/span&gt;&lt;span style=&quot;-webkit-font-smoothing: antialiased; box-sizing: border-box; -webkit-tap-highlight-color: rgba(0, 0, 0, 0); border-color: currentcolor; display: inline-block; overflow-anchor: auto; font-size: 0.7em;&quot; class=&quot;sizing reset-size6 size3 mtight&quot;&gt;&lt;span style=&quot;-webkit-font-smoothing: antialiased; box-sizing: border-box; -webkit-tap-highlight-color: rgba(0, 0, 0, 0); border-color: currentcolor; font-family: KaTeX_Math; font-style: italic; overflow-anchor: auto; margin-right: 0.03588em;&quot; class=&quot;mord mathnormal mtight&quot;&gt;q&lt;/span&gt;&lt;/span&gt;&lt;/span&gt;&lt;span style=&quot;-webkit-font-smoothing: antialiased; box-sizing: border-box; -webkit-tap-highlight-color: rgba(0, 0, 0, 0); border-color: currentcolor; display: block; height: 0px; position: relative; overflow-anchor: auto; top: -3.063em; margin-right: 0.05em;&quot;&gt;&lt;span style=&quot;-webkit-font-smoothing: antialiased; box-sizing: border-box; -webkit-tap-highlight-color: rgba(0, 0, 0, 0); border-color: currentcolor; display: inline-block; overflow-anchor: auto; overflow: hidden; width: 0px; height: 2.7em;&quot; class=&quot;pstrut&quot;&gt;&lt;/span&gt;&lt;span style=&quot;-webkit-font-smoothing: antialiased; box-sizing: border-box; -webkit-tap-highlight-color: rgba(0, 0, 0, 0); border-color: currentcolor; display: inline-block; overflow-anchor: auto; font-size: 0.7em;&quot; class=&quot;sizing reset-size6 size3 mtight&quot;&gt;&lt;span style=&quot;-webkit-font-smoothing: antialiased; box-sizing: border-box; -webkit-tap-highlight-color: rgba(0, 0, 0, 0); border-color: currentcolor; font-family: KaTeX_Math; font-style: italic; overflow-anchor: auto;&quot; class=&quot;mord mathnormal mtight&quot;&gt;i&lt;/span&gt;&lt;/span&gt;&lt;/span&gt;&lt;/span&gt;&lt;span style=&quot;-webkit-font-smoothing: antialiased; box-sizing: border-box; -webkit-tap-highlight-color: rgba(0, 0, 0, 0); border-color: currentcolor; display: table-cell; font-size: 1px; min-width: 2px; vertical-align: bottom; width: 2px; overflow-anchor: auto;&quot; class=&quot;vlist-s&quot;&gt;​&lt;/span&gt;&lt;/span&gt;&lt;span style=&quot;-webkit-font-smoothing: antialiased; box-sizing: border-box; -webkit-tap-highlight-color: rgba(0, 0, 0, 0); border-color: currentcolor; display: table-row; overflow-anchor: auto;&quot; class=&quot;vlist-r&quot;&gt;&lt;span style=&quot;-webkit-font-smoothing: antialiased; box-sizing: border-box; -webkit-tap-highlight-color: rgba(0, 0, 0, 0); border-color: currentcolor; display: table-cell; position: relative; vertical-align: bottom; overflow-anchor: auto; height: 0.3831em;&quot; class=&quot;vlist&quot;&gt;&lt;span style=&quot;-webkit-font-smoothing: antialiased; box-sizing: border-box; -webkit-tap-highlight-color: rgba(0, 0, 0, 0); border-color: currentcolor; display: block; height: 0px; position: relative; overflow-anchor: auto;&quot;&gt;&lt;/span&gt;&lt;/span&gt;&lt;/span&gt;&lt;/span&gt;&lt;/span&gt;&lt;/span&gt;&lt;span style=&quot;-webkit-font-smoothing: antialiased; box-sizing: border-box; -webkit-tap-highlight-color: rgba(0, 0, 0, 0); border-color: currentcolor; display: inline-block; overflow-anchor: auto; margin-right: 0.2778em;&quot; class=&quot;mspace&quot;&gt;&lt;/span&gt;&lt;span style=&quot;-webkit-font-smoothing: antialiased; box-sizing: border-box; -webkit-tap-highlight-color: rgba(0, 0, 0, 0); border-color: currentcolor; overflow-anchor: auto;&quot; class=&quot;mrel&quot;&gt;=&lt;/span&gt;&lt;span style=&quot;-webkit-font-smoothing: antialiased; box-sizing: border-box; -webkit-tap-highlight-color: rgba(0, 0, 0, 0); border-color: currentcolor; display: inline-block; overflow-anchor: auto; margin-right: 0.2778em;&quot; class=&quot;mspace&quot;&gt;&lt;/span&gt;&lt;/span&gt;&lt;span style=&quot;font-family: KaTeX_Main, &amp;quot;Times New Roman&amp;quot;, serif; font-size: 1.21em; color: var(--md-box-samantha-normal-text-color); background-color: rgb(255, 255, 255); text-align: start; text-wrap: nowrap; -webkit-font-smoothing: antialiased; box-sizing: border-box; -webkit-tap-highlight-color: rgba(0, 0, 0, 0); border-color: currentcolor; position: relative; width: min-content; display: inline-block; overflow-anchor: auto;&quot; class=&quot;base&quot;&gt;&lt;span style=&quot;-webkit-font-smoothing: antialiased; box-sizing: border-box; -webkit-tap-highlight-color: rgba(0, 0, 0, 0); border-color: currentcolor; display: inline-block; overflow-anchor: auto; height: 1.2078em; vertical-align: -0.3831em;&quot; class=&quot;strut&quot;&gt;&lt;/span&gt;&lt;span style=&quot;-webkit-font-smoothing: antialiased; box-sizing: border-box; -webkit-tap-highlight-color: rgba(0, 0, 0, 0); border-color: currentcolor; overflow-anchor: auto;&quot; class=&quot;mord&quot;&gt;&lt;span style=&quot;-webkit-font-smoothing: antialiased; box-sizing: border-box; -webkit-tap-highlight-color: rgba(0, 0, 0, 0); border-color: currentcolor; font-family: KaTeX_Math; font-style: italic; overflow-anchor: auto; margin-right: 0.05764em;&quot; class=&quot;mord mathnormal&quot;&gt;S&lt;/span&gt;&lt;span style=&quot;-webkit-font-smoothing: antialiased; box-sizing: border-box; -webkit-tap-highlight-color: rgba(0, 0, 0, 0); border-color: currentcolor; overflow-anchor: auto;&quot; class=&quot;msupsub&quot;&gt;&lt;span style=&quot;-webkit-font-smoothing: antialiased; box-sizing: border-box; -webkit-tap-highlight-color: rgba(0, 0, 0, 0); border-color: currentcolor; border-collapse: collapse; display: inline-table; table-layout: fixed; margin-right: -2px; overflow-anchor: auto;&quot; class=&quot;vlist-t vlist-t2&quot;&gt;&lt;span style=&quot;-webkit-font-smoothing: antialiased; box-sizing: border-box; -webkit-tap-highlight-color: rgba(0, 0, 0, 0); border-color: currentcolor; display: table-row; overflow-anchor: auto;&quot; class=&quot;vlist-r&quot;&gt;&lt;span style=&quot;-webkit-font-smoothing: antialiased; box-sizing: border-box; -webkit-tap-highlight-color: rgba(0, 0, 0, 0); border-color: currentcolor; display: table-cell; position: relative; vertical-align: bottom; overflow-anchor: auto; height: 0.8247em;&quot; class=&quot;vlist&quot;&gt;&lt;span style=&quot;-webkit-font-smoothing: antialiased; box-sizing: border-box; -webkit-tap-highlight-color: rgba(0, 0, 0, 0); border-color: currentcolor; display: block; height: 0px; position: relative; overflow-anchor: auto; top: -2.453em; margin-left: -0.0576em; margin-right: 0.05em;&quot;&gt;&lt;span style=&quot;-webkit-font-smoothing: antialiased; box-sizing: border-box; -webkit-tap-highlight-color: rgba(0, 0, 0, 0); border-color: currentcolor; display: inline-block; overflow-anchor: auto; overflow: hidden; width: 0px; height: 2.7em;&quot; class=&quot;pstrut&quot;&gt;&lt;/span&gt;&lt;span style=&quot;-webkit-font-smoothing: antialiased; box-sizing: border-box; -webkit-tap-highlight-color: rgba(0, 0, 0, 0); border-color: currentcolor; display: inline-block; overflow-anchor: auto; font-size: 0.7em;&quot; class=&quot;sizing reset-size6 size3 mtight&quot;&gt;&lt;span style=&quot;-webkit-font-smoothing: antialiased; box-sizing: border-box; -webkit-tap-highlight-color: rgba(0, 0, 0, 0); border-color: currentcolor; font-family: KaTeX_Math; font-style: italic; overflow-anchor: auto; margin-right: 0.03588em;&quot; class=&quot;mord mathnormal mtight&quot;&gt;q&lt;/span&gt;&lt;/span&gt;&lt;/span&gt;&lt;span style=&quot;-webkit-font-smoothing: antialiased; box-sizing: border-box; -webkit-tap-highlight-color: rgba(0, 0, 0, 0); border-color: currentcolor; display: block; height: 0px; position: relative; overflow-anchor: auto; top: -3.063em; margin-right: 0.05em;&quot;&gt;&lt;span style=&quot;-webkit-font-smoothing: antialiased; box-sizing: border-box; -webkit-tap-highlight-color: rgba(0, 0, 0, 0); border-color: currentcolor; display: inline-block; overflow-anchor: auto; overflow: hidden; width: 0px; height: 2.7em;&quot; class=&quot;pstrut&quot;&gt;&lt;/span&gt;&lt;span style=&quot;-webkit-font-smoothing: antialiased; box-sizing: border-box; -webkit-tap-highlight-color: rgba(0, 0, 0, 0); border-color: currentcolor; display: inline-block; overflow-anchor: auto; font-size: 0.7em;&quot; class=&quot;sizing reset-size6 size3 mtight&quot;&gt;&lt;span style=&quot;-webkit-font-smoothing: antialiased; box-sizing: border-box; -webkit-tap-highlight-color: rgba(0, 0, 0, 0); border-color: currentcolor; font-family: KaTeX_Math; font-style: italic; overflow-anchor: auto;&quot; class=&quot;mord mathnormal mtight&quot;&gt;i&lt;/span&gt;&lt;/span&gt;&lt;/span&gt;&lt;/span&gt;&lt;span style=&quot;-webkit-font-smoothing: antialiased; box-sizing: border-box; -webkit-tap-highlight-color: rgba(0, 0, 0, 0); border-color: currentcolor; display: table-cell; font-size: 1px; min-width: 2px; vertical-align: bottom; width: 2px; overflow-anchor: auto;&quot; class=&quot;vlist-s&quot;&gt;​&lt;/span&gt;&lt;/span&gt;&lt;span style=&quot;-webkit-font-smoothing: antialiased; box-sizing: border-box; -webkit-tap-highlight-color: rgba(0, 0, 0, 0); border-color: currentcolor; display: table-row; overflow-anchor: auto;&quot; class=&quot;vlist-r&quot;&gt;&lt;span style=&quot;-webkit-font-smoothing: antialiased; box-sizing: border-box; -webkit-tap-highlight-color: rgba(0, 0, 0, 0); border-color: currentcolor; display: table-cell; position: relative; vertical-align: bottom; overflow-anchor: auto; height: 0.3831em;&quot; class=&quot;vlist&quot;&gt;&lt;span style=&quot;-webkit-font-smoothing: antialiased; box-sizing: border-box; -webkit-tap-highlight-color: rgba(0, 0, 0, 0); border-color: currentcolor; display: block; height: 0px; position: relative; overflow-anchor: auto;&quot;&gt;&lt;/span&gt;&lt;/span&gt;&lt;/span&gt;&lt;/span&gt;&lt;/span&gt;&lt;/span&gt;&lt;span style=&quot;-webkit-font-smoothing: antialiased; box-sizing: border-box; -webkit-tap-highlight-color: rgba(0, 0, 0, 0); border-color: currentcolor; display: inline-block; overflow-anchor: auto; margin-right: 0.2222em;&quot; class=&quot;mspace&quot;&gt;&lt;/span&gt;&lt;span style=&quot;-webkit-font-smoothing: antialiased; box-sizing: border-box; -webkit-tap-highlight-color: rgba(0, 0, 0, 0); border-color: currentcolor; overflow-anchor: auto;&quot; class=&quot;mbin&quot;&gt;+&lt;/span&gt;&lt;span style=&quot;-webkit-font-smoothing: antialiased; box-sizing: border-box; -webkit-tap-highlight-color: rgba(0, 0, 0, 0); border-color: currentcolor; display: inline-block; overflow-anchor: auto; margin-right: 0.2222em;&quot; class=&quot;mspace&quot;&gt;&lt;/span&gt;&lt;/span&gt;&lt;span style=&quot;font-family: KaTeX_Main, &amp;quot;Times New Roman&amp;quot;, serif; font-size: 1.21em; color: var(--md-box-samantha-normal-text-color); background-color: rgb(255, 255, 255); text-align: start; text-wrap: nowrap; -webkit-font-smoothing: antialiased; box-sizing: border-box; -webkit-tap-highlight-color: rgba(0, 0, 0, 0); border-color: currentcolor; position: relative; width: min-content; display: inline-block; overflow-anchor: auto;&quot; class=&quot;base&quot;&gt;&lt;span style=&quot;-webkit-font-smoothing: antialiased; box-sizing: border-box; -webkit-tap-highlight-color: rgba(0, 0, 0, 0); border-color: currentcolor; display: inline-block; overflow-anchor: auto; height: 0.6444em;&quot; class=&quot;strut&quot;&gt;&lt;/span&gt;&lt;span style=&quot;-webkit-font-smoothing: antialiased; box-sizing: border-box; -webkit-tap-highlight-color: rgba(0, 0, 0, 0); border-color: currentcolor; overflow-anchor: auto;&quot; class=&quot;mord&quot;&gt;1&lt;/span&gt;&lt;/span&gt;" style="rounded=0;whiteSpace=wrap;html=1;" vertex="1" parent="1">
          <mxGeometry x="353" y="794" width="120" height="70" as="geometry" />
        </mxCell>
      </root>
    </mxGraphModel>
  </diagram>
</mxfile>
